<mxfile host="app.diagrams.net" modified="2021-08-12T07:31:23.903Z" agent="5.0 (Windows NT 10.0; Win64; x64) AppleWebKit/537.36 (KHTML, like Gecko) Chrome/92.0.4515.131 Safari/537.36 Edg/92.0.902.67" etag="857guGhDlx_HOPEGZRNn" version="14.9.6" type="github">
  <diagram id="jwg91ssVHAWT3ChMCfoV" name="Page-1">
    <mxGraphModel dx="1038" dy="588" grid="1" gridSize="10" guides="1" tooltips="1" connect="1" arrows="1" fold="1" page="1" pageScale="1" pageWidth="827" pageHeight="1169" math="0" shadow="0">
      <root>
        <mxCell id="0" />
        <mxCell id="1" parent="0" />
        <mxCell id="XziP5GMlbgsyt9676Pt8-1" value="로그인" style="rounded=1;whiteSpace=wrap;html=1;" vertex="1" parent="1">
          <mxGeometry x="40" y="40" width="90" height="30" as="geometry" />
        </mxCell>
        <mxCell id="XziP5GMlbgsyt9676Pt8-3" value="" style="endArrow=none;html=1;" edge="1" parent="1">
          <mxGeometry width="50" height="50" relative="1" as="geometry">
            <mxPoint x="85" y="120" as="sourcePoint" />
            <mxPoint x="84.5" y="70" as="targetPoint" />
          </mxGeometry>
        </mxCell>
        <mxCell id="XziP5GMlbgsyt9676Pt8-4" value="기업회원인가?" style="rhombus;whiteSpace=wrap;html=1;" vertex="1" parent="1">
          <mxGeometry x="37.5" y="120" width="95" height="60" as="geometry" />
        </mxCell>
        <mxCell id="XziP5GMlbgsyt9676Pt8-5" value="" style="endArrow=classic;html=1;" edge="1" parent="1">
          <mxGeometry width="50" height="50" relative="1" as="geometry">
            <mxPoint x="132.5" y="149.5" as="sourcePoint" />
            <mxPoint x="200" y="150" as="targetPoint" />
          </mxGeometry>
        </mxCell>
        <mxCell id="XziP5GMlbgsyt9676Pt8-6" value="" style="endArrow=classic;html=1;" edge="1" parent="1">
          <mxGeometry width="50" height="50" relative="1" as="geometry">
            <mxPoint x="84.5" y="180" as="sourcePoint" />
            <mxPoint x="85" y="240" as="targetPoint" />
          </mxGeometry>
        </mxCell>
        <mxCell id="XziP5GMlbgsyt9676Pt8-7" value="Yes" style="text;html=1;resizable=0;autosize=1;align=center;verticalAlign=middle;points=[];fillColor=none;strokeColor=none;rounded=0;" vertex="1" parent="1">
          <mxGeometry x="130" y="120" width="30" height="20" as="geometry" />
        </mxCell>
        <mxCell id="XziP5GMlbgsyt9676Pt8-8" value="No" style="text;html=1;resizable=0;autosize=1;align=center;verticalAlign=middle;points=[];fillColor=none;strokeColor=none;rounded=0;" vertex="1" parent="1">
          <mxGeometry x="90" y="180" width="30" height="20" as="geometry" />
        </mxCell>
        <mxCell id="XziP5GMlbgsyt9676Pt8-9" value="투자사 찾기" style="rounded=0;whiteSpace=wrap;html=1;" vertex="1" parent="1">
          <mxGeometry x="210" y="130" width="100" height="40" as="geometry" />
        </mxCell>
        <mxCell id="XziP5GMlbgsyt9676Pt8-10" value="스타트업 찾기" style="rounded=0;whiteSpace=wrap;html=1;" vertex="1" parent="1">
          <mxGeometry x="37.5" y="250" width="100" height="40" as="geometry" />
        </mxCell>
        <mxCell id="XziP5GMlbgsyt9676Pt8-11" value="" style="endArrow=classic;html=1;" edge="1" parent="1">
          <mxGeometry width="50" height="50" relative="1" as="geometry">
            <mxPoint x="84.5" y="290" as="sourcePoint" />
            <mxPoint x="85" y="350" as="targetPoint" />
          </mxGeometry>
        </mxCell>
        <mxCell id="XziP5GMlbgsyt9676Pt8-12" value="IR자료 요청" style="rounded=0;whiteSpace=wrap;html=1;" vertex="1" parent="1">
          <mxGeometry x="37.5" y="360" width="100" height="40" as="geometry" />
        </mxCell>
        <mxCell id="XziP5GMlbgsyt9676Pt8-13" value="" style="endArrow=classic;html=1;" edge="1" parent="1">
          <mxGeometry width="50" height="50" relative="1" as="geometry">
            <mxPoint x="84.5" y="400" as="sourcePoint" />
            <mxPoint x="85" y="460" as="targetPoint" />
          </mxGeometry>
        </mxCell>
        <mxCell id="XziP5GMlbgsyt9676Pt8-14" value="채팅" style="rounded=0;whiteSpace=wrap;html=1;" vertex="1" parent="1">
          <mxGeometry x="37.5" y="470" width="100" height="40" as="geometry" />
        </mxCell>
        <mxCell id="XziP5GMlbgsyt9676Pt8-19" value="" style="endArrow=classic;html=1;" edge="1" parent="1">
          <mxGeometry width="50" height="50" relative="1" as="geometry">
            <mxPoint x="310" y="149.5" as="sourcePoint" />
            <mxPoint x="377.5" y="150" as="targetPoint" />
          </mxGeometry>
        </mxCell>
        <mxCell id="XziP5GMlbgsyt9676Pt8-20" value="투자검토요청" style="rounded=0;whiteSpace=wrap;html=1;" vertex="1" parent="1">
          <mxGeometry x="390" y="130" width="100" height="40" as="geometry" />
        </mxCell>
        <mxCell id="XziP5GMlbgsyt9676Pt8-21" value="" style="endArrow=classic;html=1;" edge="1" parent="1">
          <mxGeometry width="50" height="50" relative="1" as="geometry">
            <mxPoint x="440" y="489" as="sourcePoint" />
            <mxPoint x="150" y="489.5" as="targetPoint" />
          </mxGeometry>
        </mxCell>
        <mxCell id="XziP5GMlbgsyt9676Pt8-22" value="" style="endArrow=none;html=1;" edge="1" parent="1">
          <mxGeometry width="50" height="50" relative="1" as="geometry">
            <mxPoint x="439" y="490" as="sourcePoint" />
            <mxPoint x="439.5" y="170" as="targetPoint" />
          </mxGeometry>
        </mxCell>
      </root>
    </mxGraphModel>
  </diagram>
</mxfile>
